# AST/ASF file generated using VICON BodyLanguage
# -----------------------------------------------
:version 1.10
:name VICON
:units
  mass 1.0
  length 0.45
  angle deg
:documentation
   .ast/.asf automatically generated from VICON data using
   VICON BodyBuilder and BodyLanguage model FoxedUp or BRILLIANT.MOD
:root
   order TX TY TZ RX RY RZ
   axis XYZ
   position 0 0 0  
   orientation 0 0 0 
:bonedata
  begin
     id 1 
     name lhipjoint
     direction 0.589753 -0.68606 0.426044 
     length 2.54082 
     axis 0 0 0  XYZ
  end
  begin
     id 2 
     name lfemur
     direction 0.34202 -0.939693 0  
     length 7.04539  
     axis 0 0 20  XYZ
    dof rx ry rz
    limits (-160.0 20.0)
           (-70.0 70.0)
           (-60.0 70.0)
  end
  begin
     id 3 
     name ltibia
     direction 0.34202 -0.939693 0   
     length 7.83772   
     axis 0 0 20   XYZ
    dof rx
    limits (-10.0 170.0)
  end
  begin
     id 4 
     name lfoot
     direction 0.0596604 -0.163915 0.984669   
     length 2.39542   
     axis -90 7.62852e-016 20   XYZ
    dof rx rz
    limits (-45.0 90.0)
           (-70.0 20.0)
  end
  begin
     id 5 
     name ltoes
     direction 1.53514e-011 -4.21954e-011 1   
     length 1.2047   
     axis -90 7.62852e-016 20   XYZ
    dof rx
    limits (-90.0 20.0)
  end
  begin
     id 6 
     name rhipjoint
     direction -0.580585 -0.69168 0.429534   
     length 2.52018  
     axis 0 0 0  XYZ 
  end
  begin
     id 7 
     name rfemur
     direction -0.34202 -0.939693 0   
     length 7.0101   
     axis 0 0 -20   XYZ
    dof rx ry rz
    limits (-160.0 20.0)
           (-70.0 70.0)
           (-70.0 60.0)
  end
  begin
     id 8 
     name rtibia
     direction -0.34202 -0.939693 0   
     length 7.70628   
     axis 0 0 -20   XYZ
    dof rx
    limits (-10.0 170.0)
 end
 begin
     id 9 
     name rfoot
     direction -0.0696237 -0.19129 0.979061   
     length 2.52466  
     axis -90 -7.62852e-016 -20   XYZ
    dof rx rz
    limits (-45.0 90.0)
           (-20.0 70.0)
  end
  begin
     id 10 
     name rtoes
     direction -1.53519e-011 -4.21793e-011 1   
     length 1.266   
     axis -90 -7.62852e-016 -20   XYZ
    dof rx
    limits (-90.0 20.0)
  end
  begin
     id 11 
     name lowerback
     direction 0.00381965 0.995707 -0.0924856   
     length 2.20825   
     axis 0 0 0   XYZ
    dof rx ry rz
    limits (-20.0 45.0)
           (-30.0 30.0)
           (-30.0 30.0)
  end
  begin
     id 12 
     name upperback
     direction -0.0139043 0.999634 -0.0231929   
     length 2.21517   
     axis 0 0 0   XYZ
    dof rx ry rz
    limits (-20.0 45.0)
           (-30.0 30.0)
           (-30.0 30.0)
  end
  begin
     id 13 
     name thorax
     direction -0.0143933 0.999691 0.0202892   
     length 2.22911   
     axis 0 0 0   XYZ
    dof rx ry rz
    limits (-20.0 45.0)
           (-30.0 30.0)
           (-30.0 30.0)
  end
  begin
     id 14 
     name lowerneck
     direction -0.0251153 0.981819 0.188153   
     length 1.61782   
     axis 0 0 0   XYZ
    dof rx ry rz
    limits (-20.0 45.0)
           (-30.0 30.0)
           (-30.0 30.0)
  end
  begin
     id 15 
     name upperneck
     direction 0.0563891 0.969357 -0.239095   
     length 1.64526   
     axis 0 0 0   XYZ
    dof rx ry rz
    limits (-20.0 45.0)
           (-30.0 30.0)
           (-30.0 30.0)
  end
  begin
     id 16
     name head
     direction 0.0208328 0.99459 -0.101773  
     length 1.67436  
     axis 0 0 0   XYZ
    dof rx ry rz
    limits (-20.0 45.0)
           (-30.0 30.0)
           (-30.0 30.0)
  end
  begin
     id 17 
     name lclavicle
     direction 0.917689 0.397224 0.00772059  
     length 3.31102  
     axis 0 0 0   XYZ
    dof ry rz
    limits (-20.0 10.0)
           (0.0 20.0)
  end
  begin
     id 18 
     name lhumerus
     direction 1 -4.4896e-011 2.32308e-027   
     length 5.25537   
     axis 180 -30 -90   XYZ
    dof rx ry rz
    limits (-60.0 90.0)
           (-90.0 90.0)
           (-90.0 90.0)
  end
  begin
     id 19
     name lradius
     direction 1 -4.49005e-011 -2.04271e-027   
     length 3.38855   
     axis 180 -30 -90   XYZ
    dof rx
    limits (-10.0 170.0)
  end
  begin
     id 20
     name lwrist
     direction 1 -4.48892e-011 2.56952e-028   
     length 1.69428   
     axis -5.12785e-016 90 90   XYZ
    dof ry
    limits (-180.0 0.0)
 end
  begin
     id 21 
     name lhand
     direction 1 -4.48966e-011 5.13905e-028   
     length 0.614516   
     axis -3.27915e-016 90 90   XYZ
    dof rx rz
    limits (-90.0 90.0)
           (-45.0 45.0)
  end
  begin
     id 22 
     name lfingers
     direction 1 -4.48979e-011 1.02781e-027   
     length 0.495439   
     axis -6.5583e-016 90 90   XYZ
    dof rx
    limits (0.0 90.0)
  end
  begin
     id 23
     name lthumb
     direction 0.707107 -6.35001e-011 0.707107   
     length 0.711354   
     axis -90 45 2.85299e-015   XYZ
    dof rx rz
    limits (-45.0 45.0)
           (-45.0 45.0)
  end
  begin
     id 24 
     name rclavicle
     direction -0.938556 0.342765 -0.0403177   
     length 3.27019  
     axis 0 0 0   XYZ 
    dof ry rz
    limits (-10.0 20.0)
           (-20.0 0.0)
  end
  begin
     id 25 
     name rhumerus
     direction -1 -4.48966e-011 2.52291e-027  
     length 5.38183   
     axis 180 30 90   XYZ
    dof rx ry rz
    limits (-90.0 60.0)
           (-90.0 90.0)
           (-90.0 90.0)
  end
  begin
     id 26 
     name rradius
     direction -1 -4.4896e-011 1.5797e-027   
     length 3.16988   
     axis 180 30 90   XYZ
    dof rx
    limits (-10.0 170.0)
  end
  begin
     id 27 
     name rwrist
     direction -1 -4.48947e-011 2.56952e-028   
     length 1.58494   
     axis -5.12785e-016 -90 -90   XYZ
    dof ry
    limits (-180.0 0.0)
  end
  begin
     id 28
     name rhand
     direction -1 -4.49098e-011 5.13905e-028   
     length 0.637679   
     axis -3.27915e-016 -90 -90   XYZ
    dof rx rz
    limits (-90.0 90.0)
           (-45.0 45.0)
  end
  begin
     id 29
     name rfingers
     direction -1 -4.49026e-011 1.02781e-027   
     length 0.514113   
     axis -6.5583e-016 -90 -90   XYZ
    dof rx
    limits (0.0 90.0)
  end
  begin
     id 30
     name rthumb
     direction -0.707107 -6.3491e-011 0.707107   
     length 0.738167   
     axis -90 -45 -2.85299e-015   XYZ
    dof rx rz
    limits (-45.0 45.0)
           (-45.0 45.0)
  end
:hierarchy
  begin
    root lhipjoint rhipjoint lowerback
    lhipjoint lfemur
    lfemur ltibia
    ltibia lfoot
    lfoot ltoes
    rhipjoint rfemur
    rfemur rtibia
    rtibia rfoot
    rfoot rtoes
    lowerback upperback
    upperback thorax
    thorax lowerneck lclavicle rclavicle
    lowerneck upperneck
    upperneck head
    lclavicle lhumerus
    lhumerus lradius
    lradius lwrist
    lwrist lhand lthumb
    lhand lfingers
    rclavicle rhumerus
    rhumerus rradius
    rradius rwrist
    rwrist rhand rthumb
    rhand rfingers
  end

#!OML:ASF H:\Swim\Project 1\Capture day 1\Session 1\swimmer.ASF
:FULLY-SPECIFIED
:DEGREES
2595
root 5.34111 11.7206 21.5457 90.1507 1.85313 -0.842975
lowerback 7.79178 11.334 10.9464
upperback -11.39 16.535 -11.538
thorax -10.0644 6.9582 -21.147
lowerneck 8.33383 -18.0032 -1.34629
upperneck -14.2777 -21.3706 24.535
head -2.65635 -12.2746 8.32559
rclavicle 1.90833e-014 1.04958e-013
rhumerus 387.773 1.90872 356.383
rradius 28.0134
rwrist -32.579
rhand -17.966 -2.9901
rfingers 7.12502
rthumb 8.30313 -392.807
lclavicle 1.90833e-014 1.04958e-013
lhumerus -23.6178 -24.3109 6.39662
lradius 133.296
lwrist 28.1083
lhand 20.0032 -707.088
lfingers 7.12502
lthumb 44.5381 36.5913
rfemur -18.3192 1.80538 22.9352
rtibia 35.3883
rfoot -0.202253 -16.0057
rtoes 3.00619
lfemur -22.4288 -2.70729 -20.5636
ltibia 37.191
lfoot 1.52134 3.28195
ltoes -4.94064
2596
root 5.33402 11.7223 21.5299 89.9421 1.83422 -0.63108
lowerback 7.85788 11.5399 10.9553
upperback -11.4023 16.8242 -11.6903
thorax -9.94743 7.12403 -21.3293
lowerneck 8.94566 -18.4125 -1.36612
upperneck -14.313 -21.8924 24.3778
head -2.7156 -12.5482 8.33462
rclavicle 1.59028e-014 6.99722e-014
rhumerus 386.559 2.03011 355.644
rradius 27.7856
rwrist -32.0837
rhand -18.3839 -2.70902
rfingers 7.12502
rthumb 7.89984 -392.541
lclavicle 1.59028e-014 6.99722e-014
lhumerus -22.86 -22.3149 5.4771
lradius 133.938
lwrist 28.704
lhand 21.9497 -706.995
lfingers 7.12502
lthumb 46.3468 35.9536
rfemur -18.0771 1.95442 23.0517
rtibia 35.275
rfoot -0.548376 -16.2629
rtoes 3.32298
lfemur -22.3933 -2.68329 -20.5303
ltibia 37.3599
lfoot 1.6958 2.79592
ltoes -4.99632
2597
root 5.32622 11.724 21.5123 89.7272 1.79781 -0.404019
lowerback 7.92749 11.7276 10.9518
upperback -11.407 17.0855 -11.8412
thorax -9.83782 7.27603 -21.504
lowerneck 9.54905 -18.8033 -1.4078
upperneck -14.3446 -22.3916 24.2388
head -2.77017 -12.8089 8.35255
rclavicle 1.33583e-013 -5.725e-014
rhumerus 385.366 2.14718 354.869
rradius 27.5779
rwrist -31.7074
rhand -18.8898 -2.39685
rfingers 7.12502
rthumb 7.41156 -392.247
lclavicle 1.33583e-013 -5.725e-014
lhumerus -21.973 -20.221 4.54845
lradius 134.569
lwrist 29.5722
lhand 23.9966 -706.738
lfingers 7.12502
lthumb 48.2383 35.3633
rfemur -17.8776 2.1547 23.1643
rtibia 35.1758
rfoot -0.928939 -16.4933
rtoes 3.68035
lfemur -22.3164 -2.67357 -20.5147
ltibia 37.541
lfoot 1.87215 2.36025
ltoes -4.94539
2598
root 5.31775 11.7254 21.4934 89.5054 1.74384 -0.163505
lowerback 7.99757 11.8979 10.9408
upperback -11.3981 17.3198 -11.995
thorax -9.72437 7.4161 -21.6769
lowerneck 10.1548 -19.1664 -1.49504
upperneck -14.3879 -22.8511 24.1716
head -2.81848 -13.0531 8.39938
rclavicle 1.90833e-014 2.06736e-014
rhumerus 384.188 2.25429 354.068
rradius 27.3915
rwrist -31.4473
rhand -19.4747 -2.06381
rfingers 7.12502
rthumb 6.84688 -391.933
lclavicle 1.90833e-014 2.06736e-014
lhumerus -20.9689 -18.0455 3.62015
lradius 135.182
lwrist 30.6256
lhand 25.9991 -706.377
lfingers 7.12502
lthumb 50.0768 34.8051
rfemur -17.7218 2.39193 23.2726
rtibia 35.0957
rfoot -1.34458 -16.6921
rtoes 3.9521
lfemur -22.1975 -2.66868 -20.5181
ltibia 37.7303
lfoot 2.04594 1.98036
ltoes -4.83902
2599
root 5.3087 11.7264 21.473 89.2759 1.67529 0.0893935
lowerback 8.07096 12.0504 10.9213
upperback -11.3769 17.5269 -12.1479
thorax -9.61203 7.54329 -21.8445
lowerneck 10.7836 -19.494 -1.67047
upperneck -14.4421 -23.2622 24.2181
head -2.85315 -13.2789 8.49269
rclavicle 1.27222e-014 6.36111e-015
rhumerus 383.034 2.35885 353.24
rradius 27.2175
rwrist -31.2748
rhand -20.1492 -1.69148
rfingers 7.12502
rthumb 6.19581 -391.581
lclavicle 1.27222e-014 6.36111e-015
lhumerus -19.8729 -15.8041 2.72195
lradius 135.776
lwrist 31.789
lhand 27.8859 -705.959
lfingers 7.12502
lthumb 51.7966 34.2663
rfemur -17.6111 2.64092 23.3788
rtibia 35.0372
rfoot -1.77333 -16.8479
rtoes 4.11175
lfemur -22.0366 -2.66724 -20.5368
ltibia 37.9234
lfoot 2.21705 1.66086
ltoes -4.69168
2600
root 5.29912 11.7272 21.4511 89.0416 1.58506 0.352897
lowerback 8.15209 12.1873 10.8817
upperback -11.3522 17.7093 -12.303
thorax -9.51504 7.65723 -22.0087
lowerneck 11.4539 -19.784 -1.96041
upperneck -14.4912 -23.6257 24.4022
head -2.86472 -13.4879 8.64149
rclavicle -1.62208e-013 -2.54444e-014
rhumerus 381.899 2.44496 352.366
rradius 27.0447
rwrist -31.0977
rhand -20.8959 -1.27516
rfingers 7.12502
rthumb 5.47487 -391.184
lclavicle -1.62208e-013 -2.54444e-014
lhumerus -18.6935 -13.5102 1.86293
lradius 136.353
lwrist 33.0028
lhand 29.6466 -705.489
lfingers 7.12502
lthumb 53.389 33.7541
rfemur -17.545 2.91867 23.4714
rtibia 34.9978
rfoot -2.26919 -16.9851
rtoes 4.15522
lfemur -21.8415 -2.66571 -20.5776
ltibia 38.1204
lfoot 2.38447 1.39648
ltoes -4.53254
